<mxfile host="app.diagrams.net" agent="Mozilla/5.0 (Windows NT 10.0; Win64; x64) AppleWebKit/537.36 (KHTML, like Gecko) Chrome/132.0.0.0 Safari/537.36 Edg/132.0.0.0" version="26.0.16">
  <diagram id="prtHgNgQTEPvFCAcTncT" name="Page-1">
    <mxGraphModel dx="1820" dy="590" grid="1" gridSize="10" guides="1" tooltips="1" connect="1" arrows="1" fold="1" page="1" pageScale="1" pageWidth="827" pageHeight="1169" math="0" shadow="0">
      <root>
        <mxCell id="0" />
        <mxCell id="1" parent="0" />
        <mxCell id="FZWcAyS96nI4NnQCvx1--2" value="&lt;font style=&quot;font-size: 15px;&quot;&gt;&lt;b style=&quot;&quot;&gt;OBJECTIVE&lt;/b&gt;:&lt;/font&gt; Identify the Strength, Stiffness, and Ductility of MASSBU Panel" style="rounded=0;whiteSpace=wrap;html=1;fillColor=#f8cecc;strokeColor=#b85450;strokeWidth=7;" vertex="1" parent="1">
          <mxGeometry x="170" y="10" width="280" height="90" as="geometry" />
        </mxCell>
        <mxCell id="FZWcAyS96nI4NnQCvx1--12" style="edgeStyle=orthogonalEdgeStyle;rounded=0;orthogonalLoop=1;jettySize=auto;html=1;exitX=0.5;exitY=0;exitDx=0;exitDy=0;strokeWidth=4;entryX=0.5;entryY=1;entryDx=0;entryDy=0;" edge="1" parent="1" source="FZWcAyS96nI4NnQCvx1--3" target="FZWcAyS96nI4NnQCvx1--2">
          <mxGeometry relative="1" as="geometry">
            <mxPoint x="300" y="100" as="targetPoint" />
          </mxGeometry>
        </mxCell>
        <mxCell id="FZWcAyS96nI4NnQCvx1--3" value="&lt;b&gt;Strength&lt;/b&gt;&lt;div&gt;(The Ultimate Capacity)&lt;/div&gt;" style="rounded=0;whiteSpace=wrap;html=1;" vertex="1" parent="1">
          <mxGeometry x="110" y="160" width="120" height="70" as="geometry" />
        </mxCell>
        <mxCell id="FZWcAyS96nI4NnQCvx1--13" style="edgeStyle=orthogonalEdgeStyle;rounded=0;orthogonalLoop=1;jettySize=auto;html=1;exitX=0.5;exitY=0;exitDx=0;exitDy=0;entryX=0.5;entryY=1;entryDx=0;entryDy=0;strokeWidth=4;" edge="1" parent="1" source="FZWcAyS96nI4NnQCvx1--4" target="FZWcAyS96nI4NnQCvx1--2">
          <mxGeometry relative="1" as="geometry">
            <mxPoint x="280" y="110" as="targetPoint" />
          </mxGeometry>
        </mxCell>
        <mxCell id="FZWcAyS96nI4NnQCvx1--4" value="&lt;b&gt;Stiffness&lt;/b&gt;&lt;div&gt;(The Resistance to Displacement)&amp;nbsp;&lt;/div&gt;" style="rounded=0;whiteSpace=wrap;html=1;" vertex="1" parent="1">
          <mxGeometry x="250" y="160" width="120" height="80" as="geometry" />
        </mxCell>
        <mxCell id="FZWcAyS96nI4NnQCvx1--14" style="edgeStyle=orthogonalEdgeStyle;rounded=0;orthogonalLoop=1;jettySize=auto;html=1;exitX=0.5;exitY=0;exitDx=0;exitDy=0;entryX=0.5;entryY=1;entryDx=0;entryDy=0;strokeWidth=4;" edge="1" parent="1" source="FZWcAyS96nI4NnQCvx1--5" target="FZWcAyS96nI4NnQCvx1--2">
          <mxGeometry relative="1" as="geometry">
            <mxPoint x="280" y="110" as="targetPoint" />
          </mxGeometry>
        </mxCell>
        <mxCell id="FZWcAyS96nI4NnQCvx1--5" value="&lt;b&gt;Ductility&lt;/b&gt;&lt;div&gt;(Ability to Deform plastically before Failing)&lt;/div&gt;" style="rounded=0;whiteSpace=wrap;html=1;" vertex="1" parent="1">
          <mxGeometry x="400" y="160" width="120" height="70" as="geometry" />
        </mxCell>
        <mxCell id="FZWcAyS96nI4NnQCvx1--9" value="Controlling Parameters??" style="ellipse;shape=cloud;whiteSpace=wrap;html=1;fillColor=#fff2cc;strokeColor=#d6b656;" vertex="1" parent="1">
          <mxGeometry y="260" width="120" height="80" as="geometry" />
        </mxCell>
        <mxCell id="FZWcAyS96nI4NnQCvx1--11" value="Limit States" style="rounded=0;whiteSpace=wrap;html=1;" vertex="1" parent="1">
          <mxGeometry x="560" y="230" width="120" height="60" as="geometry" />
        </mxCell>
        <mxCell id="FZWcAyS96nI4NnQCvx1--26" style="rounded=0;orthogonalLoop=1;jettySize=auto;html=1;exitX=0.25;exitY=0;exitDx=0;exitDy=0;entryX=0;entryY=1;entryDx=0;entryDy=0;" edge="1" parent="1" source="FZWcAyS96nI4NnQCvx1--15" target="FZWcAyS96nI4NnQCvx1--22">
          <mxGeometry relative="1" as="geometry" />
        </mxCell>
        <mxCell id="FZWcAyS96nI4NnQCvx1--28" style="rounded=0;orthogonalLoop=1;jettySize=auto;html=1;exitX=0.75;exitY=0;exitDx=0;exitDy=0;entryX=1;entryY=1;entryDx=0;entryDy=0;" edge="1" parent="1" source="FZWcAyS96nI4NnQCvx1--15" target="FZWcAyS96nI4NnQCvx1--22">
          <mxGeometry relative="1" as="geometry" />
        </mxCell>
        <mxCell id="FZWcAyS96nI4NnQCvx1--15" value="Force-Displacement Curve" style="rounded=0;whiteSpace=wrap;html=1;" vertex="1" parent="1">
          <mxGeometry x="110" y="445" width="420" height="50" as="geometry" />
        </mxCell>
        <mxCell id="FZWcAyS96nI4NnQCvx1--16" value="1.) Monotonic" style="rounded=0;whiteSpace=wrap;html=1;" vertex="1" parent="1">
          <mxGeometry x="110" y="505" width="120" height="60" as="geometry" />
        </mxCell>
        <mxCell id="FZWcAyS96nI4NnQCvx1--17" value="2.) Cyclic Testing" style="rounded=0;whiteSpace=wrap;html=1;" vertex="1" parent="1">
          <mxGeometry x="400" y="505" width="120" height="60" as="geometry" />
        </mxCell>
        <mxCell id="FZWcAyS96nI4NnQCvx1--20" value="Drift Limits??" style="ellipse;shape=cloud;whiteSpace=wrap;html=1;fillColor=#fff2cc;strokeColor=#d6b656;" vertex="1" parent="1">
          <mxGeometry x="530" y="495" width="120" height="80" as="geometry" />
        </mxCell>
        <mxCell id="FZWcAyS96nI4NnQCvx1--21" value="ISO 21581:2010(E)" style="rhombus;whiteSpace=wrap;html=1;fillColor=#e1d5e7;strokeColor=#9673a6;" vertex="1" parent="1">
          <mxGeometry x="230" y="510" width="160" height="50" as="geometry" />
        </mxCell>
        <mxCell id="FZWcAyS96nI4NnQCvx1--27" style="rounded=0;orthogonalLoop=1;jettySize=auto;html=1;exitX=0;exitY=0;exitDx=0;exitDy=0;entryX=0.5;entryY=1;entryDx=0;entryDy=0;" edge="1" parent="1" source="FZWcAyS96nI4NnQCvx1--22" target="FZWcAyS96nI4NnQCvx1--23">
          <mxGeometry relative="1" as="geometry">
            <mxPoint x="269.9999999999998" y="382.5" as="sourcePoint" />
          </mxGeometry>
        </mxCell>
        <mxCell id="FZWcAyS96nI4NnQCvx1--29" style="rounded=0;orthogonalLoop=1;jettySize=auto;html=1;exitX=1;exitY=0;exitDx=0;exitDy=0;entryX=0.5;entryY=1;entryDx=0;entryDy=0;" edge="1" parent="1" source="FZWcAyS96nI4NnQCvx1--22" target="FZWcAyS96nI4NnQCvx1--25">
          <mxGeometry relative="1" as="geometry">
            <mxPoint x="349.9999999999998" y="382.5" as="sourcePoint" />
          </mxGeometry>
        </mxCell>
        <mxCell id="FZWcAyS96nI4NnQCvx1--34" style="edgeStyle=orthogonalEdgeStyle;rounded=0;orthogonalLoop=1;jettySize=auto;html=1;exitX=0.5;exitY=0;exitDx=0;exitDy=0;entryX=0.5;entryY=1;entryDx=0;entryDy=0;" edge="1" parent="1" source="FZWcAyS96nI4NnQCvx1--22" target="FZWcAyS96nI4NnQCvx1--24">
          <mxGeometry relative="1" as="geometry" />
        </mxCell>
        <mxCell id="FZWcAyS96nI4NnQCvx1--22" value="ISO 21141:2022&lt;div&gt;Paragraph6&lt;/div&gt;" style="rhombus;whiteSpace=wrap;html=1;fillColor=#e1d5e7;strokeColor=#9673a6;" vertex="1" parent="1">
          <mxGeometry x="230" y="380" width="160" height="50" as="geometry" />
        </mxCell>
        <mxCell id="FZWcAyS96nI4NnQCvx1--30" style="edgeStyle=orthogonalEdgeStyle;rounded=0;orthogonalLoop=1;jettySize=auto;html=1;exitX=0.5;exitY=0;exitDx=0;exitDy=0;entryX=0.5;entryY=1;entryDx=0;entryDy=0;" edge="1" parent="1" source="FZWcAyS96nI4NnQCvx1--23" target="FZWcAyS96nI4NnQCvx1--3">
          <mxGeometry relative="1" as="geometry" />
        </mxCell>
        <mxCell id="FZWcAyS96nI4NnQCvx1--23" value="Strength Equation&lt;div&gt;Ultimate Capacity&lt;/div&gt;" style="rounded=0;whiteSpace=wrap;html=1;" vertex="1" parent="1">
          <mxGeometry x="110" y="310" width="120" height="60" as="geometry" />
        </mxCell>
        <mxCell id="FZWcAyS96nI4NnQCvx1--32" style="edgeStyle=orthogonalEdgeStyle;rounded=0;orthogonalLoop=1;jettySize=auto;html=1;exitX=0.5;exitY=0;exitDx=0;exitDy=0;entryX=0.5;entryY=1;entryDx=0;entryDy=0;" edge="1" parent="1" source="FZWcAyS96nI4NnQCvx1--24" target="FZWcAyS96nI4NnQCvx1--4">
          <mxGeometry relative="1" as="geometry" />
        </mxCell>
        <mxCell id="FZWcAyS96nI4NnQCvx1--24" value="Stiffness Equation&lt;div&gt;&lt;i&gt;Force - Displacement&lt;br&gt;&lt;/i&gt;&lt;div&gt;&lt;br&gt;&lt;/div&gt;&lt;/div&gt;" style="rounded=0;whiteSpace=wrap;html=1;" vertex="1" parent="1">
          <mxGeometry x="250" y="310" width="120" height="60" as="geometry" />
        </mxCell>
        <mxCell id="FZWcAyS96nI4NnQCvx1--33" style="edgeStyle=orthogonalEdgeStyle;rounded=0;orthogonalLoop=1;jettySize=auto;html=1;exitX=0.5;exitY=0;exitDx=0;exitDy=0;entryX=0.5;entryY=1;entryDx=0;entryDy=0;" edge="1" parent="1" source="FZWcAyS96nI4NnQCvx1--25" target="FZWcAyS96nI4NnQCvx1--5">
          <mxGeometry relative="1" as="geometry" />
        </mxCell>
        <mxCell id="FZWcAyS96nI4NnQCvx1--25" value="Ductility Equation&lt;div&gt;Mu = Vuy/Vy&lt;/div&gt;" style="rounded=0;whiteSpace=wrap;html=1;" vertex="1" parent="1">
          <mxGeometry x="400" y="310" width="120" height="60" as="geometry" />
        </mxCell>
        <mxCell id="FZWcAyS96nI4NnQCvx1--35" value="Specimen" style="rounded=0;whiteSpace=wrap;html=1;" vertex="1" parent="1">
          <mxGeometry x="135" y="880" width="90" height="60" as="geometry" />
        </mxCell>
        <mxCell id="FZWcAyS96nI4NnQCvx1--36" value="Strain Measurements" style="rounded=0;whiteSpace=wrap;html=1;" vertex="1" parent="1">
          <mxGeometry x="180" y="670" width="90" height="60" as="geometry" />
        </mxCell>
        <mxCell id="FZWcAyS96nI4NnQCvx1--37" value="Locations" style="whiteSpace=wrap;html=1;" vertex="1" parent="1">
          <mxGeometry x="297.5" y="650" width="70" height="40" as="geometry" />
        </mxCell>
        <mxCell id="FZWcAyS96nI4NnQCvx1--39" value="Data Aquisition" style="whiteSpace=wrap;html=1;" vertex="1" parent="1">
          <mxGeometry x="297.5" y="700" width="122.5" height="30" as="geometry" />
        </mxCell>
        <mxCell id="FZWcAyS96nI4NnQCvx1--40" value="Data Processing" style="whiteSpace=wrap;html=1;" vertex="1" parent="1">
          <mxGeometry x="110" y="580" width="100" height="50" as="geometry" />
        </mxCell>
        <mxCell id="FZWcAyS96nI4NnQCvx1--41" value="" style="whiteSpace=wrap;html=1;" vertex="1" parent="1">
          <mxGeometry x="220" y="580" width="300" height="20" as="geometry" />
        </mxCell>
        <mxCell id="FZWcAyS96nI4NnQCvx1--42" value="Picture Documentation" style="whiteSpace=wrap;html=1;" vertex="1" parent="1">
          <mxGeometry x="570" y="660" width="100" height="50" as="geometry" />
        </mxCell>
        <mxCell id="FZWcAyS96nI4NnQCvx1--43" style="edgeStyle=orthogonalEdgeStyle;rounded=0;orthogonalLoop=1;jettySize=auto;html=1;exitX=0.5;exitY=0;exitDx=0;exitDy=0;entryX=0.5;entryY=1;entryDx=0;entryDy=0;" edge="1" parent="1" source="FZWcAyS96nI4NnQCvx1--42" target="FZWcAyS96nI4NnQCvx1--11">
          <mxGeometry relative="1" as="geometry" />
        </mxCell>
        <mxCell id="FZWcAyS96nI4NnQCvx1--44" value="Loading" style="rounded=0;whiteSpace=wrap;html=1;" vertex="1" parent="1">
          <mxGeometry x="260" y="785" width="57" height="60" as="geometry" />
        </mxCell>
        <mxCell id="FZWcAyS96nI4NnQCvx1--45" value="Frame" style="whiteSpace=wrap;html=1;" vertex="1" parent="1">
          <mxGeometry x="373.75" y="880" width="120" height="60" as="geometry" />
        </mxCell>
        <mxCell id="FZWcAyS96nI4NnQCvx1--69" style="edgeStyle=orthogonalEdgeStyle;rounded=0;orthogonalLoop=1;jettySize=auto;html=1;exitX=0;exitY=0.5;exitDx=0;exitDy=0;entryX=1;entryY=0.5;entryDx=0;entryDy=0;fillColor=#f8cecc;strokeColor=#b85450;strokeWidth=3;" edge="1" parent="1" source="FZWcAyS96nI4NnQCvx1--46" target="FZWcAyS96nI4NnQCvx1--68">
          <mxGeometry relative="1" as="geometry" />
        </mxCell>
        <mxCell id="FZWcAyS96nI4NnQCvx1--46" value="Actuator" style="whiteSpace=wrap;html=1;fontStyle=1" vertex="1" parent="1">
          <mxGeometry x="367.5" y="970" width="132.5" height="40" as="geometry" />
        </mxCell>
        <mxCell id="FZWcAyS96nI4NnQCvx1--95" style="rounded=0;orthogonalLoop=1;jettySize=auto;html=1;exitX=0.5;exitY=0;exitDx=0;exitDy=0;entryX=0.5;entryY=1;entryDx=0;entryDy=0;strokeWidth=2;" edge="1" parent="1" source="FZWcAyS96nI4NnQCvx1--48" target="FZWcAyS96nI4NnQCvx1--49">
          <mxGeometry relative="1" as="geometry" />
        </mxCell>
        <mxCell id="FZWcAyS96nI4NnQCvx1--48" value="&lt;b&gt;INPUT&lt;/b&gt;" style="whiteSpace=wrap;html=1;" vertex="1" parent="1">
          <mxGeometry x="-70" y="785" width="120" height="60" as="geometry" />
        </mxCell>
        <mxCell id="FZWcAyS96nI4NnQCvx1--93" style="rounded=0;orthogonalLoop=1;jettySize=auto;html=1;exitX=0.5;exitY=0;exitDx=0;exitDy=0;entryX=0.5;entryY=1;entryDx=0;entryDy=0;strokeWidth=2;" edge="1" parent="1" source="FZWcAyS96nI4NnQCvx1--49" target="FZWcAyS96nI4NnQCvx1--40">
          <mxGeometry relative="1" as="geometry" />
        </mxCell>
        <mxCell id="FZWcAyS96nI4NnQCvx1--49" value="&lt;b&gt;OUTPUT&lt;/b&gt;" style="whiteSpace=wrap;html=1;" vertex="1" parent="1">
          <mxGeometry y="670" width="120" height="60" as="geometry" />
        </mxCell>
        <mxCell id="FZWcAyS96nI4NnQCvx1--52" value="How Much?" style="ellipse;shape=cloud;whiteSpace=wrap;html=1;fillColor=#fff2cc;strokeColor=#d6b656;" vertex="1" parent="1">
          <mxGeometry x="430" y="770" width="120" height="80" as="geometry" />
        </mxCell>
        <mxCell id="FZWcAyS96nI4NnQCvx1--76" style="edgeStyle=orthogonalEdgeStyle;rounded=0;orthogonalLoop=1;jettySize=auto;html=1;exitX=1;exitY=0.5;exitDx=0;exitDy=0;entryX=0;entryY=0.5;entryDx=0;entryDy=0;strokeColor=#CC0000;strokeWidth=3;" edge="1" parent="1" source="FZWcAyS96nI4NnQCvx1--53" target="FZWcAyS96nI4NnQCvx1--58">
          <mxGeometry relative="1" as="geometry" />
        </mxCell>
        <mxCell id="FZWcAyS96nI4NnQCvx1--53" value="Solid Wood" style="whiteSpace=wrap;html=1;" vertex="1" parent="1">
          <mxGeometry x="120" y="1220" width="120" height="30" as="geometry" />
        </mxCell>
        <mxCell id="FZWcAyS96nI4NnQCvx1--74" style="edgeStyle=orthogonalEdgeStyle;rounded=0;orthogonalLoop=1;jettySize=auto;html=1;exitX=0.5;exitY=1;exitDx=0;exitDy=0;entryX=0.5;entryY=0;entryDx=0;entryDy=0;strokeColor=#CC0000;strokeWidth=3;" edge="1" parent="1" source="FZWcAyS96nI4NnQCvx1--54" target="FZWcAyS96nI4NnQCvx1--55">
          <mxGeometry relative="1" as="geometry" />
        </mxCell>
        <mxCell id="FZWcAyS96nI4NnQCvx1--91" style="rounded=0;orthogonalLoop=1;jettySize=auto;html=1;exitX=1;exitY=0.5;exitDx=0;exitDy=0;entryX=0;entryY=0.5;entryDx=0;entryDy=0;" edge="1" parent="1" source="FZWcAyS96nI4NnQCvx1--54" target="FZWcAyS96nI4NnQCvx1--90">
          <mxGeometry relative="1" as="geometry" />
        </mxCell>
        <mxCell id="FZWcAyS96nI4NnQCvx1--54" value="Bamboo Culm" style="whiteSpace=wrap;html=1;" vertex="1" parent="1">
          <mxGeometry x="120" y="1120" width="120" height="30" as="geometry" />
        </mxCell>
        <mxCell id="FZWcAyS96nI4NnQCvx1--75" style="edgeStyle=orthogonalEdgeStyle;rounded=0;orthogonalLoop=1;jettySize=auto;html=1;exitX=0.5;exitY=1;exitDx=0;exitDy=0;entryX=0.5;entryY=0;entryDx=0;entryDy=0;strokeColor=#CC0000;strokeWidth=3;" edge="1" parent="1" source="FZWcAyS96nI4NnQCvx1--55" target="FZWcAyS96nI4NnQCvx1--53">
          <mxGeometry relative="1" as="geometry" />
        </mxCell>
        <mxCell id="FZWcAyS96nI4NnQCvx1--55" value="Plywood" style="whiteSpace=wrap;html=1;" vertex="1" parent="1">
          <mxGeometry x="120" y="1170" width="120" height="30" as="geometry" />
        </mxCell>
        <mxCell id="FZWcAyS96nI4NnQCvx1--56" value="Esterillas" style="whiteSpace=wrap;html=1;" vertex="1" parent="1">
          <mxGeometry x="187.5" y="1080" width="100" height="30" as="geometry" />
        </mxCell>
        <mxCell id="FZWcAyS96nI4NnQCvx1--71" style="rounded=0;orthogonalLoop=1;jettySize=auto;html=1;exitX=0.5;exitY=1;exitDx=0;exitDy=0;entryX=0.5;entryY=0;entryDx=0;entryDy=0;fillColor=#f8cecc;strokeColor=#b85450;strokeWidth=3;" edge="1" parent="1" source="FZWcAyS96nI4NnQCvx1--57" target="FZWcAyS96nI4NnQCvx1--56">
          <mxGeometry relative="1" as="geometry" />
        </mxCell>
        <mxCell id="FZWcAyS96nI4NnQCvx1--72" style="edgeStyle=orthogonalEdgeStyle;rounded=0;orthogonalLoop=1;jettySize=auto;html=1;exitX=0.5;exitY=1;exitDx=0;exitDy=0;entryX=0.5;entryY=0;entryDx=0;entryDy=0;fillColor=#f8cecc;strokeColor=#b85450;strokeWidth=3;" edge="1" parent="1" source="FZWcAyS96nI4NnQCvx1--57" target="FZWcAyS96nI4NnQCvx1--54">
          <mxGeometry relative="1" as="geometry" />
        </mxCell>
        <mxCell id="FZWcAyS96nI4NnQCvx1--57" value="Plywood" style="whiteSpace=wrap;html=1;" vertex="1" parent="1">
          <mxGeometry x="120" y="1030" width="120" height="30" as="geometry" />
        </mxCell>
        <mxCell id="FZWcAyS96nI4NnQCvx1--58" value="Base Fixture&lt;div&gt;(Moment Connection)&lt;/div&gt;" style="whiteSpace=wrap;html=1;" vertex="1" parent="1">
          <mxGeometry x="380" y="1210" width="120" height="50" as="geometry" />
        </mxCell>
        <mxCell id="FZWcAyS96nI4NnQCvx1--61" value="Flow of Stress" style="whiteSpace=wrap;html=1;fontStyle=1;fillColor=#f8cecc;strokeColor=#b85450;" vertex="1" parent="1">
          <mxGeometry x="253" y="1010" width="100" height="60" as="geometry" />
        </mxCell>
        <mxCell id="FZWcAyS96nI4NnQCvx1--66" value="How do you calibrate it?" style="ellipse;shape=cloud;whiteSpace=wrap;html=1;fillColor=#fff2cc;strokeColor=#d6b656;" vertex="1" parent="1">
          <mxGeometry x="540" y="920" width="100" height="90" as="geometry" />
        </mxCell>
        <mxCell id="FZWcAyS96nI4NnQCvx1--67" value="How accurate are the readings?" style="ellipse;shape=cloud;whiteSpace=wrap;html=1;fillColor=#fff2cc;strokeColor=#d6b656;" vertex="1" parent="1">
          <mxGeometry x="420" y="650" width="100" height="90" as="geometry" />
        </mxCell>
        <mxCell id="FZWcAyS96nI4NnQCvx1--70" style="edgeStyle=orthogonalEdgeStyle;rounded=0;orthogonalLoop=1;jettySize=auto;html=1;exitX=0.5;exitY=1;exitDx=0;exitDy=0;entryX=0.5;entryY=0;entryDx=0;entryDy=0;fillColor=#f8cecc;strokeColor=#b85450;strokeWidth=3;" edge="1" parent="1" source="FZWcAyS96nI4NnQCvx1--68" target="FZWcAyS96nI4NnQCvx1--57">
          <mxGeometry relative="1" as="geometry" />
        </mxCell>
        <mxCell id="FZWcAyS96nI4NnQCvx1--87" style="edgeStyle=orthogonalEdgeStyle;rounded=0;orthogonalLoop=1;jettySize=auto;html=1;exitX=0.5;exitY=0;exitDx=0;exitDy=0;entryX=0.5;entryY=1;entryDx=0;entryDy=0;" edge="1" parent="1" source="FZWcAyS96nI4NnQCvx1--68" target="FZWcAyS96nI4NnQCvx1--35">
          <mxGeometry relative="1" as="geometry" />
        </mxCell>
        <mxCell id="FZWcAyS96nI4NnQCvx1--68" value="Solid Wood" style="whiteSpace=wrap;html=1;" vertex="1" parent="1">
          <mxGeometry x="120" y="975" width="120" height="30" as="geometry" />
        </mxCell>
        <mxCell id="FZWcAyS96nI4NnQCvx1--77" value="&lt;b&gt;Equilibrium&lt;/b&gt;" style="whiteSpace=wrap;html=1;fillColor=#fff2cc;strokeColor=#d6b656;" vertex="1" parent="1">
          <mxGeometry x="350" y="1030" width="120" height="30" as="geometry" />
        </mxCell>
        <mxCell id="FZWcAyS96nI4NnQCvx1--118" style="rounded=0;orthogonalLoop=1;jettySize=auto;html=1;exitX=0.875;exitY=0.5;exitDx=0;exitDy=0;exitPerimeter=0;strokeWidth=4;" edge="1" parent="1" source="FZWcAyS96nI4NnQCvx1--81">
          <mxGeometry relative="1" as="geometry">
            <mxPoint x="750" y="740" as="targetPoint" />
          </mxGeometry>
        </mxCell>
        <mxCell id="FZWcAyS96nI4NnQCvx1--81" value="How Much Do We&lt;div&gt;Need?&lt;/div&gt;" style="ellipse;shape=cloud;whiteSpace=wrap;html=1;" vertex="1" parent="1">
          <mxGeometry x="570" y="730" width="150" height="70" as="geometry" />
        </mxCell>
        <mxCell id="FZWcAyS96nI4NnQCvx1--117" style="rounded=0;orthogonalLoop=1;jettySize=auto;html=1;exitX=0.8;exitY=0.8;exitDx=0;exitDy=0;exitPerimeter=0;strokeWidth=4;" edge="1" parent="1" source="FZWcAyS96nI4NnQCvx1--82">
          <mxGeometry relative="1" as="geometry">
            <mxPoint x="730" y="870" as="targetPoint" />
          </mxGeometry>
        </mxCell>
        <mxCell id="FZWcAyS96nI4NnQCvx1--82" value="What is the available Capacities" style="ellipse;shape=cloud;whiteSpace=wrap;html=1;" vertex="1" parent="1">
          <mxGeometry x="570" y="800" width="150" height="70" as="geometry" />
        </mxCell>
        <mxCell id="FZWcAyS96nI4NnQCvx1--84" value="Adhesive +&lt;div&gt;Pressing&lt;/div&gt;" style="shape=hexagon;perimeter=hexagonPerimeter2;whiteSpace=wrap;html=1;fixedSize=1;" vertex="1" parent="1">
          <mxGeometry x="-10" y="1005" width="120" height="45" as="geometry" />
        </mxCell>
        <mxCell id="FZWcAyS96nI4NnQCvx1--88" value="Number of Tests" style="rounded=0;whiteSpace=wrap;html=1;" vertex="1" parent="1">
          <mxGeometry x="330" y="785" width="100" height="60" as="geometry" />
        </mxCell>
        <mxCell id="FZWcAyS96nI4NnQCvx1--92" style="rounded=0;orthogonalLoop=1;jettySize=auto;html=1;exitX=0;exitY=1;exitDx=0;exitDy=0;entryX=1;entryY=0.25;entryDx=0;entryDy=0;" edge="1" parent="1" source="FZWcAyS96nI4NnQCvx1--90" target="FZWcAyS96nI4NnQCvx1--53">
          <mxGeometry relative="1" as="geometry" />
        </mxCell>
        <mxCell id="FZWcAyS96nI4NnQCvx1--90" value="Tie Downs!!" style="whiteSpace=wrap;html=1;fontStyle=1" vertex="1" parent="1">
          <mxGeometry x="280" y="1135" width="100" height="60" as="geometry" />
        </mxCell>
        <mxCell id="FZWcAyS96nI4NnQCvx1--96" value="Adhesive +&lt;div&gt;Pressing&lt;/div&gt;" style="shape=hexagon;perimeter=hexagonPerimeter2;whiteSpace=wrap;html=1;fixedSize=1;" vertex="1" parent="1">
          <mxGeometry x="-10" y="1072.5" width="120" height="45" as="geometry" />
        </mxCell>
        <mxCell id="FZWcAyS96nI4NnQCvx1--97" value="Adhesive +&lt;div&gt;Pressing&lt;/div&gt;" style="shape=hexagon;perimeter=hexagonPerimeter2;whiteSpace=wrap;html=1;fixedSize=1;" vertex="1" parent="1">
          <mxGeometry x="-10" y="1142.5" width="120" height="45" as="geometry" />
        </mxCell>
        <mxCell id="FZWcAyS96nI4NnQCvx1--98" value="CMU + Mortar" style="whiteSpace=wrap;html=1;" vertex="1" parent="1">
          <mxGeometry x="120" y="1270" width="120" height="30" as="geometry" />
        </mxCell>
        <mxCell id="FZWcAyS96nI4NnQCvx1--99" value="Adhesive +&lt;div&gt;Pressing&lt;/div&gt;" style="shape=hexagon;perimeter=hexagonPerimeter2;whiteSpace=wrap;html=1;fixedSize=1;" vertex="1" parent="1">
          <mxGeometry x="-10" y="1195" width="120" height="45" as="geometry" />
        </mxCell>
        <mxCell id="FZWcAyS96nI4NnQCvx1--101" value="How long do we have&lt;div&gt;&amp;nbsp;to press it for?&lt;/div&gt;" style="ellipse;shape=cloud;whiteSpace=wrap;html=1;fillColor=#fff2cc;strokeColor=#d6b656;" vertex="1" parent="1">
          <mxGeometry x="-160" y="1020" width="160" height="90" as="geometry" />
        </mxCell>
        <mxCell id="FZWcAyS96nI4NnQCvx1--102" value="Solid Wood" style="whiteSpace=wrap;html=1;" vertex="1" parent="1">
          <mxGeometry x="740" y="1130" width="120" height="30" as="geometry" />
        </mxCell>
        <mxCell id="FZWcAyS96nI4NnQCvx1--103" style="edgeStyle=orthogonalEdgeStyle;rounded=0;orthogonalLoop=1;jettySize=auto;html=1;exitX=0.5;exitY=1;exitDx=0;exitDy=0;entryX=0.5;entryY=0;entryDx=0;entryDy=0;strokeColor=#CC0000;strokeWidth=3;" edge="1" parent="1" source="FZWcAyS96nI4NnQCvx1--104" target="FZWcAyS96nI4NnQCvx1--106">
          <mxGeometry relative="1" as="geometry" />
        </mxCell>
        <mxCell id="FZWcAyS96nI4NnQCvx1--104" value="Bamboo Culm" style="whiteSpace=wrap;html=1;" vertex="1" parent="1">
          <mxGeometry x="740" y="975" width="120" height="30" as="geometry" />
        </mxCell>
        <mxCell id="FZWcAyS96nI4NnQCvx1--105" style="edgeStyle=orthogonalEdgeStyle;rounded=0;orthogonalLoop=1;jettySize=auto;html=1;exitX=0.5;exitY=1;exitDx=0;exitDy=0;entryX=0.5;entryY=0;entryDx=0;entryDy=0;strokeColor=#CC0000;strokeWidth=3;" edge="1" parent="1" source="FZWcAyS96nI4NnQCvx1--106" target="FZWcAyS96nI4NnQCvx1--102">
          <mxGeometry relative="1" as="geometry" />
        </mxCell>
        <mxCell id="FZWcAyS96nI4NnQCvx1--106" value="Plywood" style="whiteSpace=wrap;html=1;" vertex="1" parent="1">
          <mxGeometry x="740" y="1025" width="120" height="30" as="geometry" />
        </mxCell>
        <mxCell id="FZWcAyS96nI4NnQCvx1--115" value="" style="edgeStyle=orthogonalEdgeStyle;rounded=0;orthogonalLoop=1;jettySize=auto;html=1;" edge="1" parent="1" source="FZWcAyS96nI4NnQCvx1--107" target="FZWcAyS96nI4NnQCvx1--110">
          <mxGeometry relative="1" as="geometry" />
        </mxCell>
        <mxCell id="FZWcAyS96nI4NnQCvx1--116" value="" style="edgeStyle=orthogonalEdgeStyle;rounded=0;orthogonalLoop=1;jettySize=auto;html=1;" edge="1" parent="1" source="FZWcAyS96nI4NnQCvx1--107" target="FZWcAyS96nI4NnQCvx1--110">
          <mxGeometry relative="1" as="geometry" />
        </mxCell>
        <mxCell id="FZWcAyS96nI4NnQCvx1--107" value="Esterillas" style="whiteSpace=wrap;html=1;" vertex="1" parent="1">
          <mxGeometry x="807.5" y="935" width="100" height="30" as="geometry" />
        </mxCell>
        <mxCell id="FZWcAyS96nI4NnQCvx1--108" style="rounded=0;orthogonalLoop=1;jettySize=auto;html=1;exitX=0.5;exitY=1;exitDx=0;exitDy=0;entryX=0.5;entryY=0;entryDx=0;entryDy=0;fillColor=#f8cecc;strokeColor=#b85450;strokeWidth=3;" edge="1" parent="1" source="FZWcAyS96nI4NnQCvx1--110" target="FZWcAyS96nI4NnQCvx1--107">
          <mxGeometry relative="1" as="geometry" />
        </mxCell>
        <mxCell id="FZWcAyS96nI4NnQCvx1--109" style="edgeStyle=orthogonalEdgeStyle;rounded=0;orthogonalLoop=1;jettySize=auto;html=1;exitX=0.5;exitY=1;exitDx=0;exitDy=0;entryX=0.5;entryY=0;entryDx=0;entryDy=0;fillColor=#f8cecc;strokeColor=#b85450;strokeWidth=3;" edge="1" parent="1" source="FZWcAyS96nI4NnQCvx1--110" target="FZWcAyS96nI4NnQCvx1--104">
          <mxGeometry relative="1" as="geometry" />
        </mxCell>
        <mxCell id="FZWcAyS96nI4NnQCvx1--110" value="Plywood" style="whiteSpace=wrap;html=1;" vertex="1" parent="1">
          <mxGeometry x="740" y="885" width="120" height="30" as="geometry" />
        </mxCell>
        <mxCell id="FZWcAyS96nI4NnQCvx1--111" style="edgeStyle=orthogonalEdgeStyle;rounded=0;orthogonalLoop=1;jettySize=auto;html=1;exitX=0.5;exitY=1;exitDx=0;exitDy=0;entryX=0.5;entryY=0;entryDx=0;entryDy=0;fillColor=#f8cecc;strokeColor=#b85450;strokeWidth=3;" edge="1" parent="1" source="FZWcAyS96nI4NnQCvx1--112" target="FZWcAyS96nI4NnQCvx1--110">
          <mxGeometry relative="1" as="geometry" />
        </mxCell>
        <mxCell id="FZWcAyS96nI4NnQCvx1--112" value="Solid Wood" style="whiteSpace=wrap;html=1;" vertex="1" parent="1">
          <mxGeometry x="740" y="830" width="120" height="30" as="geometry" />
        </mxCell>
        <mxCell id="FZWcAyS96nI4NnQCvx1--113" value="Tie Downs!!" style="whiteSpace=wrap;html=1;fontStyle=1" vertex="1" parent="1">
          <mxGeometry x="827" y="1065" width="100" height="60" as="geometry" />
        </mxCell>
        <mxCell id="FZWcAyS96nI4NnQCvx1--114" value="CMU + Mortar" style="whiteSpace=wrap;html=1;" vertex="1" parent="1">
          <mxGeometry x="740" y="1180" width="120" height="30" as="geometry" />
        </mxCell>
        <mxCell id="FZWcAyS96nI4NnQCvx1--146" value="Safety Plan?" style="rounded=0;whiteSpace=wrap;html=1;" vertex="1" parent="1">
          <mxGeometry x="170" y="785" width="57" height="60" as="geometry" />
        </mxCell>
        <mxCell id="FZWcAyS96nI4NnQCvx1--147" value="What could go&lt;div&gt;&amp;nbsp;wrong ...&lt;/div&gt;" style="ellipse;shape=cloud;whiteSpace=wrap;html=1;fillColor=#fff2cc;strokeColor=#d6b656;" vertex="1" parent="1">
          <mxGeometry x="60" y="795" width="120" height="80" as="geometry" />
        </mxCell>
        <mxCell id="FZWcAyS96nI4NnQCvx1--148" value="Assembly" style="rounded=0;whiteSpace=wrap;html=1;" vertex="1" parent="1">
          <mxGeometry x="-40" y="1360" width="120" height="60" as="geometry" />
        </mxCell>
      </root>
    </mxGraphModel>
  </diagram>
</mxfile>
